<svg width="180" height="30" viewBox="0 0 180 30" fill="none" xmlns="http://www.w3.org/2000/svg">
<path d="M91.827 15C91.827 6.71573 98.6236 0 107.008 0H164.819C173.203 0 180 6.71573 180 15C180 23.2843 173.203 30 164.819 30H107.008C98.6236 30 91.827 23.2843 91.827 15Z" fill="#D5F29F"/>
<path d="M32.6704 15C32.6704 6.71573 39.467 0 47.8511 0H76.6466C85.0306 0 91.827 6.71573 91.827 15C91.827 23.2843 85.0306 30 76.6466 30H47.8511C39.467 30 32.6704 23.2843 32.6704 15Z" fill="#D5F29F"/>
<path d="M0 15.0192C0 6.74641 6.78718 0.0400101 15.1596 0.0400101H17.5101C25.8825 0.0400101 32.6697 6.74641 32.6697 15.0192C32.6697 23.2919 25.8825 29.9983 17.5101 29.9983H15.1596C6.78719 29.9983 0 23.2919 0 15.0192Z" fill="#D5F29F"/>
<path d="M41.5952 7.65529H38.6997C37.6311 8.91186 36.8302 10.1932 36.296 11.4983C35.7617 12.8044 35.4951 14.1709 35.4951 15.5999C35.4951 17.0289 35.7617 18.3965 36.296 19.7015C36.8302 21.0077 37.6311 22.288 38.6997 23.5445H41.5952C40.8304 22.1155 40.2632 20.7512 39.8925 19.4515C39.5218 18.1518 39.337 16.8683 39.337 15.5988C39.337 14.3293 39.5218 13.0092 39.8925 11.7095C40.2632 10.4098 40.8304 9.05842 41.5952 7.65421V7.65529Z" fill="#272727"/>
<path d="M54.2978 8.51419C53.0773 7.94087 51.6604 7.65529 50.0448 7.65529H43.2341V21.5131H50.0448C51.6593 21.5131 53.0773 21.2264 54.2978 20.6542C55.5182 20.082 56.4646 19.2748 57.1391 18.2337C57.8125 17.1927 58.1503 15.9771 58.1503 14.5847C58.1503 13.1924 57.8136 11.9768 57.1391 10.9357C56.4657 9.8947 55.5182 9.08752 54.2978 8.51527V8.51419ZM53.8517 16.4502C53.5234 16.9804 53.0593 17.3899 52.4581 17.6787C51.8569 17.9686 51.1495 18.113 50.3369 18.113H46.9857V11.0554H50.3369C51.1505 11.0554 51.8579 11.1998 52.4581 11.4897C53.0593 11.7795 53.5234 12.1858 53.8517 12.7096C54.1799 13.2333 54.3434 13.8584 54.3434 14.5847C54.3434 15.3111 54.1799 15.9211 53.8517 16.4513V16.4502Z" fill="#272727"/>
<path d="M63.8669 7.65529H60.0973V21.5131H63.8669V7.65529Z" fill="#272727"/>
<path d="M77.4798 8.51419C76.2594 7.94087 74.8424 7.65529 73.2279 7.65529H66.4172V21.5131H73.2279C74.8424 21.5131 76.2604 21.2264 77.4798 20.6542C78.6992 20.082 79.6467 19.2748 80.3211 18.2337C80.9946 17.1927 81.3323 15.9771 81.3323 14.5847C81.3323 13.1924 80.9956 11.9768 80.3211 10.9357C79.6477 9.8947 78.7003 9.08752 77.4798 8.51527V8.51419ZM77.0337 16.4502C76.7055 16.9804 76.2413 17.3899 75.6401 17.6787C75.0389 17.9686 74.3315 18.113 73.5189 18.113H70.1678V11.0554H73.5189C74.3326 11.0554 75.04 11.1998 75.6401 11.4897C76.2413 11.7795 76.7055 12.1858 77.0337 12.7096C77.3619 13.2333 77.5255 13.8584 77.5255 14.5847C77.5255 15.3111 77.3619 15.9211 77.0337 16.4513V16.4502Z" fill="#272727"/>
<path d="M84.6283 7.65529H81.7328C82.5092 9.0595 83.0807 10.412 83.445 11.7106C83.8093 13.0103 83.991 14.3067 83.991 15.5999C83.991 16.8931 83.8093 18.1529 83.445 19.4526C83.0807 20.7523 82.5103 22.1166 81.7328 23.5456H84.6283C85.7085 22.289 86.5136 21.0077 87.0415 19.7026C87.5695 18.3976 87.8339 17.03 87.8339 15.601C87.8339 14.172 87.5695 12.8044 87.0415 11.4994C86.5136 10.1943 85.7085 8.91293 84.6283 7.65636V7.65529Z" fill="#272727"/>
<path d="M95.4922 13.5674H89.4548V16.5418H95.4922V13.5674Z" fill="#272727"/>
<path d="M139.108 13.5674H133.071V16.5418H139.108V13.5674Z" fill="#272727"/>
<path d="M107.453 12.6805C107.207 12.4057 106.929 12.1438 106.615 11.8959C106.142 11.5198 105.601 11.2181 104.994 10.9907C104.387 10.7633 103.72 10.6491 102.991 10.6491C102.008 10.6491 101.133 10.8527 100.369 11.259C99.6039 11.6653 98.9996 12.2322 98.5566 12.9585C98.1137 13.686 97.8917 14.5416 97.8917 15.5266C97.8917 16.5116 98.1126 17.3533 98.5566 18.0861C98.9996 18.8189 99.6039 19.389 100.369 19.7953C101.133 20.2016 102.008 20.4053 102.991 20.4053C103.902 20.4053 104.718 20.2425 105.441 19.916C106.163 19.5895 106.773 19.1746 107.271 18.6691C107.333 18.6055 107.394 18.542 107.452 18.4773V18.8534C107.452 19.999 107.14 20.8309 106.514 21.3482C105.889 21.8655 104.982 22.1241 103.792 22.1241C102.954 22.1241 102.119 21.9981 101.289 21.7459C100.457 21.4937 99.6645 21.0842 98.9114 20.5173V23.3624C99.725 23.8549 100.541 24.2278 101.361 24.4799C102.18 24.7321 103.07 24.8582 104.029 24.8582C105.474 24.8582 106.727 24.6179 107.79 24.1372C108.852 23.6566 109.681 22.955 110.276 22.0304C110.87 21.1068 111.168 19.9979 111.168 18.7047V10.9627H107.452V12.6805H107.453ZM106.161 17.2638C105.602 17.6453 104.965 17.8372 104.249 17.8372C103.703 17.8372 103.234 17.7423 102.847 17.5505C102.458 17.3597 102.161 17.0882 101.955 16.7379C101.747 16.3866 101.644 15.9836 101.644 15.5277C101.644 15.0718 101.747 14.6505 101.955 14.2992C102.161 13.9478 102.461 13.6806 102.856 13.4952C103.25 13.3109 103.716 13.2182 104.25 13.2182C104.954 13.2182 105.585 13.4058 106.144 13.7819C106.702 14.158 107.182 14.7399 107.582 15.5277C107.193 16.3036 106.719 16.8834 106.162 17.2649L106.161 17.2638Z" fill="#272727"/>
<path d="M116.905 7.28564H113.171V21.5131H116.905V7.28564Z" fill="#272727"/>
<path d="M128.624 11.3506C127.622 10.8829 126.459 10.648 125.137 10.648C123.814 10.648 122.635 10.8818 121.64 11.3506C120.645 11.8183 119.867 12.4714 119.308 13.3088C118.75 14.1461 118.47 15.1257 118.47 16.2465C118.47 17.3673 118.75 18.3135 119.308 19.1562C119.867 20.0001 120.644 20.6531 121.64 21.1144C122.635 21.5767 123.8 21.8073 125.137 21.8073C126.473 21.8073 127.622 21.5767 128.624 21.1144C129.625 20.652 130.405 20.0001 130.964 19.1562C131.522 18.3124 131.802 17.3425 131.802 16.2465C131.802 15.1505 131.522 14.1461 130.964 13.3088C130.405 12.4714 129.625 11.8183 128.624 11.3506ZM127.686 17.7251C127.455 18.1443 127.124 18.4644 126.694 18.6864C126.262 18.9084 125.743 19.0194 125.137 19.0194C124.53 19.0194 124.007 18.9084 123.57 18.6864C123.132 18.4644 122.799 18.1443 122.568 17.7251C122.338 17.3069 122.222 16.808 122.222 16.2282C122.222 15.6484 122.337 15.1537 122.568 14.741C122.799 14.3282 123.132 14.0114 123.57 13.7894C124.007 13.5674 124.529 13.4564 125.137 13.4564C125.744 13.4564 126.262 13.5674 126.694 13.7894C127.125 14.0114 127.455 14.3282 127.686 14.741C127.916 15.1537 128.032 15.6559 128.032 16.2465C128.032 16.8371 127.916 17.3059 127.686 17.7251Z" fill="#272727"/>
<path d="M151.967 11.3506C151.196 10.8829 150.301 10.648 149.281 10.648C148.261 10.648 147.433 10.8786 146.649 11.3409C145.967 11.7429 145.393 12.2861 144.928 12.9682V7.28564H141.195V21.5131H144.928V19.4817C145.393 20.1692 145.964 20.7135 146.64 21.1154C147.417 21.5778 148.297 21.8084 149.281 21.8084C150.265 21.8084 151.196 21.5778 151.967 21.1154C152.738 20.6531 153.34 20.0011 153.77 19.1573C154.201 18.3135 154.417 17.3436 154.417 16.2476C154.417 15.1516 154.201 14.1472 153.77 13.3098C153.338 12.4725 152.737 11.8194 151.967 11.3517V11.3506ZM150.346 17.6324C150.134 18.0387 149.84 18.3566 149.463 18.584C149.087 18.8125 148.649 18.9256 148.152 18.9256C147.655 18.9256 147.18 18.8114 146.732 18.584C146.282 18.3566 145.887 18.0387 145.548 17.6324C145.209 17.2261 144.947 16.7638 144.766 16.2465C144.947 15.7174 145.209 15.2486 145.548 14.8423C145.888 14.436 146.284 14.1159 146.732 13.881C147.181 13.6472 147.655 13.5297 148.152 13.5297C148.649 13.5297 149.087 13.6472 149.463 13.881C149.839 14.1149 150.133 14.4349 150.346 14.8423C150.559 15.2486 150.665 15.7174 150.665 16.2465C150.665 16.7757 150.559 17.2261 150.346 17.6324Z" fill="#272727"/>
<path d="M165.417 10.9627L165.155 13.076C164.669 12.3443 164.073 11.7645 163.368 11.342C162.596 10.8797 161.719 10.6491 160.735 10.6491C159.752 10.6491 158.82 10.8829 158.049 11.3517C157.278 11.8194 156.675 12.4725 156.237 13.3098C155.801 14.1472 155.582 15.1268 155.582 16.2476C155.582 17.3684 155.801 18.3146 156.237 19.1573C156.675 20.0011 157.278 20.6542 158.049 21.1154C158.82 21.5778 159.716 21.8084 160.735 21.8084C161.755 21.8084 162.595 21.5778 163.368 21.1154C164.074 20.6919 164.668 20.1089 165.15 19.3696L165.417 21.5131H169.278L168.622 16.2282L169.278 10.9627H165.417ZM163.286 18.584C162.836 18.8125 162.357 18.9256 161.848 18.9256C161.338 18.9256 160.931 18.8114 160.555 18.584C160.179 18.3566 159.884 18.0387 159.671 17.6324C159.459 17.2261 159.353 16.7638 159.353 16.2465C159.353 15.7292 159.459 15.2486 159.671 14.8423C159.884 14.436 160.178 14.1159 160.555 13.881C160.931 13.6472 161.362 13.5297 161.848 13.5297C162.357 13.5297 162.838 13.6472 163.286 13.881C163.735 14.1149 164.129 14.4349 164.47 14.8423C164.81 15.2486 165.065 15.7174 165.235 16.2465C165.065 16.7638 164.81 17.2261 164.47 17.6324C164.13 18.0387 163.735 18.3566 163.286 18.584Z" fill="#272727"/>
<path d="M174.796 7.28564H171.062V21.5131H174.796V7.28564Z" fill="#272727"/>
<path d="M17.2912 9.42851H14.5954V13.2349H10.8438V15.9689H14.5954V19.7753H17.2912V15.9689H21.0428V13.2349H17.2912V9.42851Z" fill="#272727"/>
</svg>
