<svg width="211" height="26" viewBox="0 0 211 26" fill="none" xmlns="http://www.w3.org/2000/svg">
<path d="M55.7025 14.1325V24.4441H51.6104V14.3921C51.6104 13.5266 51.4971 12.8095 51.2579 12.2531C51.0313 11.6968 50.6787 11.2764 50.2003 11.0044C49.7218 10.7324 49.1426 10.5963 48.4375 10.5963C47.8835 10.5963 47.3673 10.6953 46.8636 10.8684C46.3726 11.0538 45.9445 11.3135 45.5919 11.6473C45.2394 11.9811 44.9624 12.3644 44.7609 12.7972C44.5595 13.2299 44.4588 13.6997 44.4588 14.219V24.4318H40.3667V14.355C40.3667 13.539 40.2408 12.8466 40.0015 12.3026C39.7623 11.7462 39.4098 11.3258 38.9439 11.0415C38.478 10.7447 37.924 10.6087 37.2567 10.6087C36.7027 10.6087 36.1865 10.7076 35.708 10.8807C35.2295 11.0662 34.8014 11.3135 34.4489 11.6473C34.0964 11.9688 33.8193 12.352 33.6179 12.7848C33.4164 13.2175 33.3157 13.6874 33.3157 14.2067V24.4565H29.2236V7.35695H33.215L33.2653 9.81741C33.3409 9.70613 33.429 9.59485 33.5172 9.48358C33.9075 9.00138 34.3859 8.56864 34.9399 8.22244C35.494 7.86388 36.0731 7.57951 36.6901 7.38168C37.3071 7.17149 37.9366 7.07258 38.5662 7.07258C39.5105 7.07258 40.3541 7.22095 41.097 7.50532C41.8398 7.80206 42.4568 8.25953 42.9478 8.87774C43.2878 9.31048 43.5774 9.82977 43.7914 10.4232C44.0307 9.99051 44.3328 9.58249 44.7106 9.21157C45.1513 8.79119 45.6423 8.4079 46.1963 8.07407C46.7503 7.74024 47.3295 7.48059 47.9339 7.3075C48.5382 7.1344 49.1426 7.04785 49.7344 7.04785C51.0564 7.04785 52.1519 7.3075 53.0332 7.82679C53.9146 8.34608 54.5693 9.13738 55.01 10.1883C55.4759 11.264 55.7025 12.5746 55.7025 14.1325Z" fill="#071D2D"/>
<path d="M85.5935 14.1325V24.4441H81.5014V14.3921C81.5014 13.5266 81.3881 12.8095 81.1488 12.2531C80.9222 11.6968 80.5697 11.2764 80.0912 11.0044C79.6127 10.7324 79.0336 10.5963 78.3285 10.5963C77.7744 10.5963 77.2582 10.6953 76.7672 10.8684C76.2761 11.0538 75.848 11.3135 75.4955 11.6473C75.1429 11.9811 74.8659 12.3644 74.6771 12.7972C74.4756 13.2299 74.3749 13.6997 74.3749 14.219V24.4318H70.2828V14.355C70.2828 13.539 70.1569 12.8466 69.9177 12.3026C69.6784 11.7462 69.3259 11.3258 68.86 11.0415C68.3942 10.7447 67.8401 10.6087 67.1728 10.6087C66.6188 10.6087 66.1026 10.7076 65.6241 10.8807C65.1457 11.0662 64.7176 11.3135 64.365 11.6473C64.0125 11.9688 63.7355 12.352 63.5466 12.7848C63.3452 13.2175 63.2444 13.6874 63.2444 14.2067V24.4565H59.1523V7.35695H63.1437L63.1941 9.81741C63.2696 9.70613 63.3577 9.59485 63.4459 9.48358C63.8362 9.00138 64.3147 8.56864 64.8687 8.22244C65.4227 7.86388 66.0019 7.57951 66.6188 7.38168C67.2358 7.17149 67.8653 7.07258 68.4949 7.07258C69.4392 7.07258 70.2828 7.22095 71.0257 7.50532C71.7685 7.80206 72.3855 8.25953 72.8765 8.87774C73.2165 9.31048 73.5061 9.82977 73.7201 10.4232C73.9468 9.99051 74.2616 9.58249 74.6393 9.21157C75.08 8.79119 75.571 8.4079 76.125 8.07407C76.679 7.74024 77.2582 7.48059 77.8626 7.3075C78.467 7.1344 79.0713 7.04785 79.6631 7.04785C80.9852 7.04785 82.0806 7.3075 82.962 7.82679C83.8433 8.34608 84.498 9.13738 84.9387 10.1883C85.3794 11.264 85.5935 12.5746 85.5935 14.1325Z" fill="#071D2D"/>
<path d="M102.717 0.445312V9.31037C102.44 9.00126 102.1 8.71689 101.723 8.44488C101.106 7.99977 100.413 7.65358 99.6326 7.39393C98.852 7.13429 98.0462 7.01065 97.2026 7.01065C95.6665 7.01065 94.2815 7.39393 93.0601 8.16051C91.8388 8.92708 90.8693 9.97803 90.1768 11.3257C89.4717 12.661 89.1191 14.1942 89.1191 15.9004C89.1191 17.6314 89.4717 19.1645 90.1894 20.4875C90.9071 21.8228 91.8766 22.8614 93.0979 23.628C94.3192 24.3946 95.7042 24.7778 97.2404 24.7778C98.0336 24.7778 98.8016 24.6542 99.5697 24.4069C100.325 24.1596 100.992 23.8258 101.572 23.4178C102.063 23.0716 102.466 22.6883 102.806 22.2803L102.856 24.4564H106.784V0.445312H102.717ZM102.239 18.7318C101.836 19.5602 101.269 20.2031 100.539 20.673C99.8089 21.1552 98.9779 21.3901 98.0336 21.3901C97.0893 21.3901 96.2457 21.1552 95.528 20.673C94.7977 20.2031 94.2311 19.5478 93.8282 18.7318C93.4253 17.9158 93.2112 16.9637 93.2112 15.8757C93.2112 14.8124 93.4127 13.8727 93.8282 13.0443C94.2311 12.2159 94.7977 11.5606 95.528 11.1032C96.2583 10.6333 97.0893 10.4108 98.0336 10.4108C98.9779 10.4108 99.8215 10.6457 100.539 11.1032C101.269 11.573 101.836 12.2159 102.239 13.0443C102.642 13.8727 102.856 14.8248 102.856 15.8757C102.856 16.9637 102.654 17.9158 102.239 18.7318Z" fill="#071D2D"/>
<path d="M124.286 24.7654C122.75 24.7654 121.365 24.5058 120.143 23.9988C118.922 23.4919 117.927 22.7624 117.159 21.8104L119.803 19.5725C120.458 20.302 121.201 20.8336 122.019 21.1551C122.838 21.4766 123.694 21.6373 124.6 21.6373C124.978 21.6373 125.306 21.6002 125.608 21.5136C125.91 21.4271 126.162 21.3035 126.388 21.1304C126.602 20.9573 126.779 20.7594 126.905 20.5245C127.031 20.302 127.081 20.0423 127.081 19.7579C127.081 19.2387 126.879 18.8306 126.489 18.5215C126.275 18.3732 125.923 18.2124 125.444 18.0393C124.966 17.8662 124.361 17.6931 123.606 17.52C122.422 17.2233 121.428 16.8648 120.634 16.4691C119.841 16.0734 119.224 15.616 118.783 15.1214C118.406 14.7134 118.129 14.2436 117.94 13.7243C117.751 13.205 117.663 12.6486 117.663 12.0428C117.663 11.2885 117.839 10.5962 118.179 9.99031C118.519 9.37211 118.985 8.84045 119.577 8.38298C120.168 7.92551 120.861 7.57932 121.654 7.3444C122.447 7.10948 123.266 6.98584 124.135 6.98584C125.016 6.98584 125.872 7.09712 126.691 7.30731C127.522 7.5175 128.29 7.8266 129.007 8.23461C129.725 8.63026 130.329 9.11246 130.846 9.68121L128.567 12.1169C128.151 11.7337 127.698 11.3875 127.194 11.0784C126.703 10.7816 126.2 10.5343 125.696 10.3489C125.192 10.1634 124.714 10.0769 124.273 10.0769C123.858 10.0769 123.48 10.114 123.152 10.1881C122.825 10.2623 122.548 10.3736 122.321 10.5343C122.107 10.6827 121.931 10.8805 121.805 11.1031C121.679 11.3256 121.629 11.5976 121.629 11.8944C121.654 12.154 121.717 12.4013 121.843 12.6239C121.969 12.8464 122.133 13.0442 122.359 13.1926C122.598 13.341 122.964 13.5141 123.455 13.7119C123.933 13.9097 124.563 14.0952 125.331 14.2683C126.414 14.5527 127.308 14.8618 128.038 15.208C128.768 15.5542 129.335 15.9498 129.75 16.4073C130.166 16.7906 130.468 17.248 130.644 17.7673C130.82 18.2866 130.909 18.8554 130.909 19.4859C130.909 20.4998 130.619 21.4147 130.04 22.206C129.461 23.0097 128.667 23.6279 127.66 24.0854C126.665 24.5305 125.532 24.7654 124.286 24.7654Z" fill="#071D2D"/>
<path d="M160.863 14.1325V24.4441H156.771V14.3921C156.771 13.5266 156.657 12.8095 156.418 12.2531C156.191 11.6968 155.839 11.2764 155.36 11.0044C154.882 10.7324 154.303 10.5963 153.598 10.5963C153.044 10.5963 152.527 10.6953 152.024 10.8684C151.533 11.0538 151.105 11.3135 150.752 11.6473C150.4 11.9811 150.122 12.3644 149.921 12.7972C149.72 13.2299 149.619 13.6997 149.619 14.219V24.4318H145.527V14.355C145.527 13.539 145.401 12.8466 145.162 12.3026C144.922 11.7462 144.57 11.3258 144.104 11.0415C143.638 10.7447 143.084 10.6087 142.417 10.6087C141.863 10.6087 141.347 10.7076 140.868 10.8807C140.39 11.0662 139.962 11.3135 139.609 11.6473C139.256 11.9688 138.979 12.352 138.778 12.7848C138.577 13.2175 138.476 13.6874 138.476 14.2067V24.4565H134.384V7.35695H138.375L138.425 9.81741C138.501 9.70613 138.589 9.59485 138.677 9.48358C139.068 9.00138 139.546 8.56864 140.1 8.22244C140.654 7.86388 141.233 7.57951 141.85 7.38168C142.467 7.17149 143.097 7.07258 143.726 7.07258C144.671 7.07258 145.514 7.22095 146.257 7.50532C147 7.80206 147.617 8.25953 148.108 8.87774C148.448 9.31048 148.737 9.82977 148.952 10.4232C149.191 9.99051 149.493 9.58249 149.871 9.21157C150.311 8.79119 150.802 8.4079 151.356 8.07407C151.91 7.74024 152.49 7.48059 153.094 7.3075C153.698 7.1344 154.303 7.04785 154.894 7.04785C156.217 7.04785 157.312 7.3075 158.193 7.82679C159.075 8.34608 159.729 9.13738 160.17 10.1883C160.636 11.264 160.863 12.5746 160.863 14.1325Z" fill="#071D2D"/>
<path d="M177.886 7.35661V9.75524C177.546 9.26068 177.143 8.82793 176.664 8.41992C176.11 7.96245 175.481 7.61625 174.751 7.36897C174.02 7.12169 173.214 6.99805 172.346 6.99805C170.822 6.99805 169.462 7.38133 168.254 8.13554C167.045 8.88975 166.088 9.9407 165.383 11.276C164.678 12.6113 164.325 14.1445 164.325 15.8507C164.325 17.557 164.678 19.0778 165.383 20.4255C166.088 21.7608 167.02 22.8241 168.191 23.603C169.362 24.382 170.658 24.7652 172.081 24.7652C172.912 24.7652 173.706 24.6292 174.436 24.382C175.179 24.1223 175.846 23.7761 176.45 23.3557C177.004 22.9725 177.47 22.5397 177.848 22.0451V24.4438H181.978V7.35661H177.886ZM177.407 18.645C177.004 19.4611 176.438 20.0916 175.707 20.5367C174.977 20.9942 174.146 21.2168 173.202 21.2168C172.258 21.2168 171.427 20.9942 170.709 20.5367C169.991 20.0793 169.437 19.4487 169.047 18.645C168.657 17.829 168.455 16.9017 168.455 15.8384C168.455 14.7998 168.657 13.8848 169.047 13.0812C169.45 12.2775 170.004 11.6593 170.709 11.2018C171.427 10.7444 172.258 10.5218 173.202 10.5218C174.146 10.5218 174.99 10.7444 175.707 11.2018C176.438 11.6593 177.004 12.2899 177.407 13.0812C177.81 13.8848 178.024 14.7998 178.024 15.8384C178.024 16.9017 177.81 17.8414 177.407 18.645Z" fill="#071D2D"/>
<path d="M197.893 7.31951L196.81 11.6964C196.57 11.5604 196.268 11.4615 195.916 11.3749C195.563 11.2884 195.211 11.2513 194.858 11.2513C194.304 11.2513 193.788 11.3502 193.297 11.5604C192.806 11.7706 192.365 12.055 191.987 12.4135C191.61 12.7844 191.32 13.2048 191.106 13.6994C190.892 14.1816 190.791 14.7256 190.791 15.3314V24.4438H186.699V7.35661H190.691L190.728 10.2745C190.93 9.90361 191.169 9.55742 191.459 9.23595C192.05 8.54356 192.743 7.99954 193.523 7.60389C194.304 7.20824 195.123 6.99805 195.979 6.99805C196.356 6.99805 196.709 7.03514 197.049 7.09696C197.389 7.15878 197.678 7.23297 197.893 7.31951Z" fill="#071D2D"/>
<path d="M211 7.35704V11.0539H207.197V24.4319H203.143V11.0539H199.706V7.35704H203.143V3.00488H207.197V7.35704H211Z" fill="#071D2D"/>
<path d="M111.846 17.1616C110.952 17.1616 110.222 16.4445 110.222 15.5666C110.222 14.6888 110.952 13.9717 111.846 13.9717C112.74 13.9717 113.47 14.6888 113.47 15.5666C113.47 16.4445 112.752 17.1616 111.846 17.1616Z" fill="#ED7801" stroke="#ED7801" stroke-miterlimit="10" stroke-linecap="round" stroke-linejoin="round"/>
<path d="M9.45578 0.02492C10.1231 -0.135813 10.7527 0.408207 10.7527 1.12532V3.36323C10.8786 3.36323 10.9919 3.35086 11.1178 3.35086C17.2622 3.35086 22.2482 8.24704 22.2482 14.2807C22.2482 20.3144 17.2622 25.2106 11.1178 25.2106C4.98598 25.2106 -5.94293e-05 20.3144 -5.94293e-05 14.2807C-0.113378 8.23468 3.82761 1.4097 9.45578 0.02492Z" fill="#ED7801"/>
<path d="M15.7262 21.0808C15.3988 21.1673 15.0841 20.8953 15.0715 20.5368V19.424C15.0085 19.424 14.9456 19.424 14.8826 19.424C11.8104 19.424 9.31738 16.9759 9.31738 13.9591C9.31738 10.9422 11.8104 8.49414 14.8826 8.49414C17.9548 8.49414 20.4478 10.9422 20.4478 13.9591C20.5108 16.9759 18.5466 20.3884 15.7262 21.0808Z" fill="white"/>
</svg>
