<svg xmlns="http://www.w3.org/2000/svg" xmlns:xlink="http://www.w3.org/1999/xlink" width="96" zoomAndPan="magnify" viewBox="0 0 72 49.499998" height="66" preserveAspectRatio="xMidYMid meet" version="1.0"><defs><filter x="0%" y="0%" width="100%" height="100%" id="c2b54aff8a"><feColorMatrix values="0 0 0 0 1 0 0 0 0 1 0 0 0 0 1 0 0 0 1 0" color-interpolation-filters="sRGB"/></filter><clipPath id="e45c3e2443"><path d="M 21 0 L 71.640625 0 L 71.640625 49 L 21 49 Z M 21 0 " clip-rule="nonzero"/></clipPath><mask id="7f25b1734e"><g filter="url(#c2b54aff8a)"><rect x="-7.2" width="86.4" fill="#000000" y="-4.95" height="59.399998" fill-opacity="0.5"/></g></mask><clipPath id="8f0bd9e8f8"><path d="M 0.816406 0 L 50.601562 0 L 50.601562 48.832031 L 0.816406 48.832031 Z M 0.816406 0 " clip-rule="nonzero"/></clipPath><clipPath id="a780edfdf9"><path d="M 25.6875 0 C 11.949219 0 0.816406 10.933594 0.816406 24.417969 C 0.816406 37.902344 11.949219 48.832031 25.6875 48.832031 C 39.421875 48.832031 50.554688 37.902344 50.554688 24.417969 C 50.554688 10.933594 39.421875 0 25.6875 0 Z M 25.6875 0 " clip-rule="nonzero"/></clipPath><clipPath id="014144f75a"><rect x="0" width="51" y="0" height="49"/></clipPath><clipPath id="eae7056e52"><path d="M 0.359375 0 L 50.148438 0 L 50.148438 48.832031 L 0.359375 48.832031 Z M 0.359375 0 " clip-rule="nonzero"/></clipPath><clipPath id="7a79f9fbca"><path d="M 25.230469 0 C 11.496094 0 0.359375 10.933594 0.359375 24.417969 C 0.359375 37.902344 11.496094 48.832031 25.230469 48.832031 C 38.964844 48.832031 50.101562 37.902344 50.101562 24.417969 C 50.101562 10.933594 38.964844 0 25.230469 0 Z M 25.230469 0 " clip-rule="nonzero"/></clipPath></defs><g clip-path="url(#e45c3e2443)"><g mask="url(#7f25b1734e)"><g transform="matrix(1, 0, 0, 1, 21, 0)"><g clip-path="url(#014144f75a)"><g clip-path="url(#8f0bd9e8f8)"><g clip-path="url(#a780edfdf9)"><path fill="#1bb465" d="M 0.816406 0 L 50.601562 0 L 50.601562 48.832031 L 0.816406 48.832031 Z M 0.816406 0 " fill-opacity="1" fill-rule="nonzero"/></g></g></g></g></g></g><g clip-path="url(#eae7056e52)"><g clip-path="url(#7a79f9fbca)"><path fill="#16b364" d="M 0.359375 0 L 50.148438 0 L 50.148438 48.832031 L 0.359375 48.832031 Z M 0.359375 0 " fill-opacity="1" fill-rule="nonzero"/></g></g></svg>